<svg xmlns="http://www.w3.org/2000/svg" width="172.898" height="161.71" viewBox="0 0 172.898 161.71"><g transform="translate(-275.934 -305.849)"><path d="M448.534,400.472a90.1,90.1,0,0,0-1.586-10.654c1.225-15.1-2.5-30.4-12.76-42.055a60.3,60.3,0,0,0-12.714-10.891,103.747,103.747,0,0,0-16.834-17.1c-24.154-18.906-49.726-15.484-71.038-6.364a84.3,84.3,0,0,0-28.447,19.618c-10.045,9.268-17.893,22.972-22.872,37.317-6.535,18.875-7.036,45.724,7.2,65.838.413.583.831,1.1,1.256,1.66.774,1.339,1.6,2.663,2.492,3.948,10.541,15.2,25.264,20.331,38.4,21.428.716.206,1.433.413,2.148.6,14.722,3.961,29.406,4.444,43.993,2.993C401.226,464.489,453.225,454.641,448.534,400.472Zm-15.715-49.087c7.143,7.738,10.464,17.43,11.2,27.379a132.07,132.07,0,0,0-14.631-30.834c1.159,1.106,2.321,2.239,3.426,3.454Zm-152.555,42.17A79.165,79.165,0,0,1,285,371c-3.773,14.781-5.233,33.793-.752,50.832a70.486,70.486,0,0,1-3.983-28.275Zm50.822,66.218a103.008,103.008,0,0,1-16.57-6.389,63.663,63.663,0,0,1-22.9-18.389c-6.635-11.84-8.017-26.787-7.528-39.537.991-25.277,9.783-44.578,22.49-58.329,6.573-6.224,14.192-10.661,22.568-11.418,1.655-.135,1.236-4.328-.438-4.162a27.806,27.806,0,0,0-3.09.486c21.628-12.414,48.758-18.3,74.945-.612a74.906,74.906,0,0,1,12.4,10.781c-9.487-4.36-19.34-6.482-28.215-8.031a120.546,120.546,0,0,0-48.944,1.254c-3.674.879-7.309,1.727-10.942,2.541-1.6.352-.465,4.372,1.131,4.028,10.141-2.251,20.267-5.309,31.129-5.564a146.729,146.729,0,0,1,23.65,1.411c12.5,1.7,26.654,4.7,39.414,12.916a143.866,143.866,0,0,1,13.825,22.7,123.426,123.426,0,0,1,9.815,26.533,71.745,71.745,0,0,1-10.356,30.122c-14.313,22.242-37.4,30.19-57.23,34.944-14.513,3.456-29.993,6.469-45.154,4.714ZM445.91,408.724c-.533,26.073-19.047,38.819-33.408,45.444-16.248,7.516-33.951,9.941-51,9.9a117.306,117.306,0,0,1-14.9-1.043c17.556-1.352,35.4-4.257,52.615-11.435,17.649-7.326,36.723-20.3,44.8-46.52.56-1.832,1.023-3.711,1.449-5.571a72.715,72.715,0,0,1,.443,9.225Z" fill="#81b03f" opacity="0.2" style="isolation:isolate"/><path d="M446.583,400.273A89.906,89.906,0,0,0,445,389.618c1.225-15.1-2.5-30.4-12.76-42.057a60.333,60.333,0,0,0-12.715-10.891,103.714,103.714,0,0,0-16.835-17.1c-24.154-18.906-49.726-15.483-71.038-6.365A84.281,84.281,0,0,0,303.2,332.824C293.157,342.09,285.31,355.8,280.33,370.14c-6.535,18.876-7.036,45.725,7.2,65.838.413.583.832,1.1,1.256,1.66.774,1.337,1.6,2.662,2.492,3.948,10.541,15.206,25.265,20.331,38.4,21.427.716.207,1.433.413,2.148.6,14.722,3.963,29.406,4.443,43.993,2.994C399.275,464.288,451.275,454.442,446.583,400.273Zm-15.715-49.087c7.143,7.736,10.464,17.427,11.2,27.378a131.976,131.976,0,0,0-14.631-30.832c1.159,1.1,2.321,2.236,3.426,3.453ZM278.312,393.355a79.234,79.234,0,0,1,4.734-22.558c-3.772,14.783-5.233,33.8-.752,50.834A70.475,70.475,0,0,1,278.312,393.355Zm50.822,66.219a103.264,103.264,0,0,1-16.57-6.388,63.684,63.684,0,0,1-22.9-18.393c-6.635-11.837-8.017-26.785-7.528-39.535.99-25.278,9.783-44.579,22.49-58.33,6.573-6.224,14.192-10.661,22.568-11.417,1.655-.133,1.236-4.327-.438-4.16a27.781,27.781,0,0,0-3.091.484c21.628-12.413,48.758-18.295,74.945-.61a74.773,74.773,0,0,1,12.4,10.78c-9.487-4.36-19.34-6.482-28.215-8.03a120.546,120.546,0,0,0-48.944,1.253c-3.674.879-7.309,1.729-10.942,2.541-1.6.354-.465,4.375,1.131,4.029,10.141-2.25,20.267-5.31,31.129-5.564a146.723,146.723,0,0,1,23.65,1.412c12.5,1.7,26.654,4.7,39.414,12.916a143.867,143.867,0,0,1,13.825,22.7,123.456,123.456,0,0,1,9.815,26.534,71.731,71.731,0,0,1-10.356,30.122c-14.313,22.243-37.4,30.191-57.23,34.944-14.511,3.452-29.991,6.467-45.152,4.711Zm114.824-51.048c-.533,26.071-19.047,38.819-33.408,45.445-16.248,7.515-33.951,9.939-51,9.9a117.683,117.683,0,0,1-14.9-1.041c17.556-1.353,35.4-4.259,52.615-11.437,17.649-7.326,36.723-20.306,44.8-46.52.56-1.832,1.023-3.711,1.449-5.573a72.9,72.9,0,0,1,.444,9.225Z" fill="#81b03f" opacity="0.2" style="isolation:isolate"/><g style="isolation:isolate"><g style="isolation:isolate"><path d="M372.913,369.9a47.308,47.308,0,0,1-1.332,10.471q-1.332,5.811-2.516,10.323t-2.109,8.733q-.927,4.217-1.554,6.845t-1.443,5.365q-1.628,5.254-3.552,5.254-1.7,0-3.885-2.183t-2.183-3.959a45.362,45.362,0,0,1,1.628-8.141q1.627-6.363,3.293-16.686a134.89,134.89,0,0,0,1.665-21.5,1.913,1.913,0,0,1,2.183-2.146q2.181,0,5.994,3.108T372.913,369.9Z" fill="#81b03f"/></g></g></g></svg>