<svg xmlns="http://www.w3.org/2000/svg" width="172.898" height="161.71" viewBox="0 0 172.898 161.71"><g transform="translate(-915.074 -305.849)"><path d="M1087.675,400.472a90.111,90.111,0,0,0-1.586-10.654c1.225-15.1-2.5-30.4-12.76-42.055a60.3,60.3,0,0,0-12.714-10.891,103.747,103.747,0,0,0-16.834-17.1c-24.154-18.906-49.726-15.484-71.038-6.364A84.3,84.3,0,0,0,944.3,333.026C934.251,342.294,926.4,356,921.424,370.343c-6.535,18.875-7.036,45.724,7.2,65.838.413.583.831,1.1,1.256,1.66.774,1.339,1.6,2.663,2.492,3.948,10.541,15.2,25.264,20.331,38.4,21.428.716.206,1.433.413,2.148.6,14.722,3.961,29.406,4.444,43.993,2.993C1040.367,464.489,1092.366,454.641,1087.675,400.472Zm-15.715-49.087c7.143,7.738,10.464,17.43,11.205,27.379a132.076,132.076,0,0,0-14.631-30.834c1.159,1.106,2.321,2.239,3.426,3.454Zm-152.555,42.17A79.165,79.165,0,0,1,924.139,371c-3.773,14.781-5.233,33.793-.752,50.832a70.486,70.486,0,0,1-3.983-28.275Zm50.822,66.218a103.01,103.01,0,0,1-16.57-6.389,63.663,63.663,0,0,1-22.9-18.389c-6.635-11.84-8.017-26.787-7.528-39.537.991-25.277,9.783-44.578,22.49-58.329,6.573-6.224,14.192-10.661,22.568-11.418,1.655-.135,1.236-4.328-.438-4.162a27.806,27.806,0,0,0-3.09.486c21.628-12.414,48.758-18.3,74.945-.612a74.9,74.9,0,0,1,12.4,10.781c-9.487-4.36-19.34-6.482-28.215-8.031a120.546,120.546,0,0,0-48.944,1.254c-3.674.879-7.309,1.727-10.942,2.541-1.6.352-.465,4.372,1.131,4.028,10.141-2.251,20.267-5.309,31.129-5.564a146.729,146.729,0,0,1,23.65,1.411c12.5,1.7,26.654,4.7,39.414,12.916a143.866,143.866,0,0,1,13.825,22.7,123.424,123.424,0,0,1,9.815,26.533,71.745,71.745,0,0,1-10.356,30.122c-14.313,22.242-37.4,30.19-57.23,34.944-14.513,3.456-29.993,6.469-45.154,4.714Zm114.824-51.049c-.533,26.073-19.047,38.819-33.408,45.444-16.248,7.516-33.951,9.941-51,9.9a117.306,117.306,0,0,1-14.9-1.043c17.556-1.352,35.4-4.257,52.615-11.435,17.649-7.326,36.723-20.3,44.8-46.52.56-1.832,1.023-3.711,1.449-5.571a72.738,72.738,0,0,1,.443,9.225Z" fill="#81b03f" opacity="0.2" style="isolation:isolate"/><path d="M1085.724,400.273a89.875,89.875,0,0,0-1.586-10.655c1.225-15.1-2.5-30.4-12.76-42.057a60.334,60.334,0,0,0-12.715-10.891,103.709,103.709,0,0,0-16.835-17.1c-24.154-18.906-49.726-15.483-71.038-6.365a84.281,84.281,0,0,0-28.447,19.619C932.3,342.09,924.451,355.8,919.471,370.14c-6.535,18.876-7.036,45.725,7.2,65.838.413.583.832,1.1,1.256,1.66.774,1.337,1.6,2.662,2.492,3.948,10.541,15.206,25.265,20.331,38.4,21.427.716.207,1.433.413,2.148.6,14.722,3.963,29.406,4.443,43.993,2.994C1038.416,464.288,1090.416,454.442,1085.724,400.273Zm-15.715-49.087c7.143,7.736,10.464,17.427,11.2,27.378a131.974,131.974,0,0,0-14.631-30.832c1.159,1.1,2.321,2.236,3.426,3.453ZM917.453,393.355a79.232,79.232,0,0,1,4.734-22.558c-3.772,14.783-5.233,33.8-.752,50.834A70.475,70.475,0,0,1,917.453,393.355Zm50.822,66.219a103.225,103.225,0,0,1-16.57-6.388,63.683,63.683,0,0,1-22.9-18.393c-6.635-11.837-8.017-26.785-7.528-39.535.99-25.278,9.783-44.579,22.49-58.33,6.573-6.224,14.192-10.661,22.568-11.417,1.655-.133,1.236-4.327-.438-4.16a27.779,27.779,0,0,0-3.091.484c21.628-12.413,48.758-18.295,74.945-.61a74.774,74.774,0,0,1,12.4,10.78c-9.487-4.36-19.34-6.482-28.215-8.03a120.546,120.546,0,0,0-48.944,1.253c-3.674.879-7.309,1.729-10.942,2.541-1.6.354-.465,4.375,1.131,4.029,10.141-2.25,20.267-5.31,31.129-5.564a146.723,146.723,0,0,1,23.65,1.412c12.5,1.7,26.654,4.7,39.414,12.916a143.867,143.867,0,0,1,13.825,22.7,123.453,123.453,0,0,1,9.815,26.534,71.731,71.731,0,0,1-10.356,30.122c-14.313,22.243-37.4,30.191-57.23,34.944-14.511,3.452-29.991,6.467-45.152,4.711ZM1083.1,408.526c-.533,26.071-19.047,38.819-33.408,45.445-16.248,7.515-33.951,9.939-51,9.9a117.682,117.682,0,0,1-14.9-1.041c17.556-1.353,35.4-4.259,52.615-11.437,17.649-7.326,36.723-20.306,44.8-46.52.56-1.832,1.023-3.711,1.449-5.573a72.9,72.9,0,0,1,.444,9.225Z" fill="#81b03f" opacity="0.2" style="isolation:isolate"/><g style="isolation:isolate"><g style="isolation:isolate"><path d="M1010.867,377q1.849,0,4.994,2.738t3.146,4.514q0,4.293-5.254,20.609t-7.918,16.318q-1.407,0-3.146-2.11a6.155,6.155,0,0,1-1.738-3.589,14.43,14.43,0,0,1,.37-3.144q.369-1.666.777-3.109t1.257-4.106q.852-2.664,1.37-4.292a31.807,31.807,0,0,1-10.471,1.85q-5.145,0-7.992-2.813a10.121,10.121,0,0,1-2.849-7.548q0-3.4,3.663-10.36a78.507,78.507,0,0,1,8.1-12.505q4.44-5.551,6.327-5.551a5.988,5.988,0,0,1,3.922,1.85q2.034,1.851,2.035,3.441t-6.919,11.433q-6.919,9.843-6.919,11.619a1.173,1.173,0,0,0,.3.962,2.555,2.555,0,0,0,1.332.222,20.684,20.684,0,0,0,7.252-2q4.734-2,5.1-2.073a56.31,56.31,0,0,0,.963-10.138A2,2,0,0,1,1010.867,377Z" fill="#81b03f"/></g></g></g></svg>