<svg xmlns="http://www.w3.org/2000/svg" width="204.381" height="191.148" viewBox="0 0 204.381 191.148">
  <g id="Group_8777" data-name="Group 8777" transform="translate(0.001)">
    <g id="Group_8703" data-name="Group 8703" transform="translate(0 0)">
      <g id="Group_8631" data-name="Group 8631" transform="translate(0 0)">
        <path id="Shape_2" data-name="Shape 2" d="M632.56,1166.268a106.437,106.437,0,0,0-1.875-12.594c1.448-17.855-2.96-35.932-15.083-49.712a71.284,71.284,0,0,0-15.03-12.875,122.626,122.626,0,0,0-19.9-20.214c-28.552-22.349-58.781-18.3-83.973-7.523a99.64,99.64,0,0,0-33.627,23.191c-11.874,10.956-21.151,27.155-27.037,44.112-7.725,22.313-8.317,54.05,8.512,77.826.488.689.983,1.3,1.485,1.963.915,1.583,1.9,3.148,2.945,4.667,12.461,17.974,29.865,24.033,45.4,25.33.847.244,1.694.489,2.539.706,17.4,4.683,34.761,5.253,52,3.538C576.638,1241.942,638.106,1230.3,632.56,1166.268Zm-18.577-58.025c8.443,9.147,12.37,20.6,13.245,32.364a156.085,156.085,0,0,0-17.3-36.448C611.3,1105.466,612.677,1106.806,613.983,1108.242Zm-180.334,49.849a93.611,93.611,0,0,1,5.6-26.666c-4.46,17.473-6.186,39.947-.889,60.088A83.321,83.321,0,0,1,433.649,1158.091Zm60.077,78.275a121.774,121.774,0,0,1-19.587-7.552,75.244,75.244,0,0,1-27.073-21.738c-7.844-14-9.477-31.664-8.9-46.736,1.171-29.88,11.564-52.7,26.585-68.95,7.77-7.357,16.776-12.6,26.677-13.5,1.957-.159,1.461-5.116-.518-4.92a33.03,33.03,0,0,0-3.653.575c25.566-14.675,57.636-21.628,88.592-.723a88.538,88.538,0,0,1,14.654,12.743c-11.214-5.154-22.861-7.662-33.352-9.493a142.5,142.5,0,0,0-57.856,1.482c-4.343,1.039-8.64,2.042-12.934,3-1.887.416-.549,5.168,1.337,4.761,11.988-2.661,23.958-6.276,36.8-6.577a173.35,173.35,0,0,1,27.957,1.668c14.782,2.012,31.507,5.552,46.59,15.268a170.056,170.056,0,0,1,16.342,26.828,145.936,145.936,0,0,1,11.6,31.365,84.807,84.807,0,0,1-12.242,35.607c-16.919,26.292-44.209,35.687-67.651,41.306C529.947,1234.879,511.652,1238.441,493.726,1236.366Zm135.732-60.344c-.63,30.82-22.515,45.887-39.492,53.719-19.206,8.884-40.133,11.751-60.289,11.707a138.851,138.851,0,0,1-17.613-1.233c20.752-1.6,41.846-5.032,62.2-13.518,20.863-8.66,43.409-24,52.956-54.99.662-2.166,1.209-4.387,1.712-6.586A85.993,85.993,0,0,1,629.458,1176.022Z" transform="translate(-428.533 -1054.417)" fill="#81b03f" opacity="0.2"/>
        <path id="Shape_2-2" data-name="Shape 2" d="M925.56,976.269a106.285,106.285,0,0,0-1.875-12.595c1.448-17.855-2.96-35.932-15.083-49.715a71.319,71.319,0,0,0-15.03-12.874,122.578,122.578,0,0,0-19.9-20.213c-28.552-22.349-58.781-18.3-83.973-7.524a99.615,99.615,0,0,0-33.627,23.192c-11.874,10.953-21.15,27.154-27.037,44.111-7.725,22.313-8.317,54.052,8.511,77.826.488.689.983,1.3,1.485,1.963.915,1.58,1.9,3.147,2.945,4.667,12.461,17.974,29.865,24.033,45.4,25.329.847.245,1.694.489,2.539.705,17.4,4.685,34.76,5.252,52,3.539C869.638,1051.941,931.106,1040.3,925.56,976.269Zm-18.577-58.026c8.444,9.145,12.37,20.6,13.245,32.363a156.041,156.041,0,0,0-17.3-36.447C904.3,915.466,905.677,916.8,906.983,918.243ZM726.649,968.091a93.631,93.631,0,0,1,5.6-26.667c-4.459,17.475-6.186,39.949-.889,60.091A83.323,83.323,0,0,1,726.649,968.091Zm60.077,78.276a122.036,122.036,0,0,1-19.587-7.551,75.281,75.281,0,0,1-27.073-21.742c-7.844-13.992-9.477-31.662-8.9-46.734,1.171-29.881,11.564-52.7,26.585-68.952,7.77-7.357,16.776-12.6,26.677-13.5,1.957-.158,1.461-5.115-.518-4.917a32.859,32.859,0,0,0-3.653.571c25.566-14.673,57.636-21.626,88.592-.721A88.416,88.416,0,0,1,883.5,895.568c-11.214-5.154-22.861-7.662-33.352-9.492a142.48,142.48,0,0,0-57.856,1.481c-4.343,1.039-8.64,2.044-12.934,3-1.887.418-.549,5.172,1.337,4.763,11.988-2.66,23.958-6.277,36.8-6.577a173.409,173.409,0,0,1,27.957,1.669c14.782,2.013,31.507,5.552,46.59,15.268a170.061,170.061,0,0,1,16.342,26.829,145.943,145.943,0,0,1,11.6,31.365,84.807,84.807,0,0,1-12.242,35.607c-16.919,26.293-44.209,35.688-67.651,41.307C822.947,1044.879,804.652,1048.443,786.726,1046.367Zm135.732-60.344c-.63,30.819-22.515,45.888-39.492,53.719-19.206,8.884-40.133,11.749-60.289,11.706a139.346,139.346,0,0,1-17.613-1.231c20.752-1.6,41.846-5.034,62.2-13.519,20.863-8.66,43.409-24,52.956-54.99.662-2.166,1.209-4.387,1.712-6.587A86.031,86.031,0,0,1,922.458,986.023Z" transform="translate(-723.839 -864.653)" fill="#81b03f" opacity="0.2"/>
      </g>
      <g id="_002-diet" data-name="002-diet" transform="translate(55.864 53.82)">
        <g id="Group_8617" data-name="Group 8617" transform="translate(28.641 29.958)">
          <g id="Group_8616" data-name="Group 8616" transform="translate(0 0)">
            <path id="Path_2929" data-name="Path 2929" d="M164.783,192.661a4.247,4.247,0,0,0-7.381,2.793,1.365,1.365,0,0,0,1.341,1.388h.024a1.365,1.365,0,0,0,1.364-1.342,1.515,1.515,0,0,1,1.543-1.49,1.5,1.5,0,0,1,1.093.492,1.365,1.365,0,0,0,2.015-1.841Z" transform="translate(-157.402 -191.28)" fill="#81b03f"/>
          </g>
        </g>
        <g id="Group_8619" data-name="Group 8619" transform="translate(35.954 33.416)">
          <g id="Group_8618" data-name="Group 8618">
            <path id="Path_2930" data-name="Path 2930" d="M204.922,212.653a3.9,3.9,0,0,0-7.243.173,1.365,1.365,0,1,0,2.559.949,1.174,1.174,0,0,1,1.5-.691,1.153,1.153,0,0,1,.668.637,1.365,1.365,0,0,0,2.512-1.068Z" transform="translate(-197.594 -210.283)" fill="#81b03f"/>
          </g>
        </g>
        <g id="Group_8621" data-name="Group 8621" transform="translate(48.463 23.301)">
          <g id="Group_8620" data-name="Group 8620">
            <path id="Path_2931" data-name="Path 2931" d="M269.954,155.092a1.364,1.364,0,0,0-1.93,0l-1.286,1.289a1.365,1.365,0,0,0,1.932,1.928l1.286-1.289A1.365,1.365,0,0,0,269.954,155.092Z" transform="translate(-266.339 -154.693)" fill="#81b03f"/>
          </g>
        </g>
        <g id="Group_8623" data-name="Group 8623" transform="translate(40.404 41.318)">
          <g id="Group_8622" data-name="Group 8622">
            <path id="Path_2932" data-name="Path 2932" d="M225.233,253.709h-1.819a1.365,1.365,0,1,0,0,2.729h1.819a1.365,1.365,0,1,0,0-2.729Z" transform="translate(-222.049 -253.709)" fill="#81b03f"/>
          </g>
        </g>
        <g id="Group_8625" data-name="Group 8625" transform="translate(54.349 41.318)">
          <g id="Group_8624" data-name="Group 8624">
            <path id="Path_2933" data-name="Path 2933" d="M301.876,253.709h-1.819a1.365,1.365,0,1,0,0,2.729h1.819a1.365,1.365,0,1,0,0-2.729Z" transform="translate(-298.692 -253.709)" fill="#81b03f"/>
          </g>
        </g>
        <g id="Group_8627" data-name="Group 8627" transform="translate(0 0)">
          <g id="Group_8626" data-name="Group 8626">
            <path id="Path_2934" data-name="Path 2934" d="M93.119,92.561l-.355-1.918a2.589,2.589,0,0,0-3.015-2.072L82.514,89.9l3.276-2.19a2.578,2.578,0,0,0,.815-3.416l-.991-1.756a2.581,2.581,0,0,0-2.592-1.292,34.52,34.52,0,0,0,.553-6.163A2.282,2.282,0,0,0,82.218,73,10.465,10.465,0,0,0,82.3,65.08a1.656,1.656,0,0,0-.926-.929,10.382,10.382,0,0,0-3.858-.741q-.254,0-.506.012a7.194,7.194,0,0,0-8.668-6.7,11.245,11.245,0,0,0-.636-6.006,1.678,1.678,0,0,0-.943-.951,11.216,11.216,0,0,0-10.138.93,13.5,13.5,0,0,0-3.213-5.141,2.317,2.317,0,0,0-3.28,0l-6.607,6.623a6.859,6.859,0,0,0-4.578-1.743,6.9,6.9,0,0,0-4.927,2.068,6.859,6.859,0,0,0-5.089-.363v-5.1A6.443,6.443,0,0,0,22.614,40.6V37.708A2.276,2.276,0,0,0,24.5,35.469V28.911a2.277,2.277,0,0,0-2.274-2.274h-11.1a2.277,2.277,0,0,0-2.274,2.274v6.558a2.276,2.276,0,0,0,1.886,2.239V40.6a6.442,6.442,0,0,0-6.318,6.439v39.83A13.035,13.035,0,0,0,0,96.561c0,7.469,6.555,13.545,14.613,13.545l54.622-.016a6.246,6.246,0,0,0,6.181-7.223l10.91,1.961a2.607,2.607,0,0,0,.459.041,2.587,2.587,0,0,0,2.561-2.2l.3-1.983a2.58,2.58,0,0,0-1.981-2.9L83.814,96.9l7.228-1.328a2.584,2.584,0,0,0,2.078-3.011ZM77.518,66.14a7.653,7.653,0,0,1,2.406.386,7.729,7.729,0,0,1-.653,6.276H75.6l1.173-1.176A1.365,1.365,0,0,0,74.836,69.7l-.621.622A6.329,6.329,0,0,0,72.749,67.8,7.631,7.631,0,0,1,77.518,66.14Zm-7.7-6.837a4.481,4.481,0,0,1,4.47,4.483c0,.046,0,.091,0,.137a10.369,10.369,0,0,0-3.9,2.311c-.18-.068-.362-.132-.55-.183a6.331,6.331,0,0,0-3.772-4.693A4.463,4.463,0,0,1,69.822,59.3Zm-7.214-7.6a8.454,8.454,0,0,1,2.716.447,8.55,8.55,0,0,1-.338,6.3,7.248,7.248,0,0,0-1.748,2.424,6.441,6.441,0,0,0-.728.083,6.373,6.373,0,0,0-2.9,1.323,7.222,7.222,0,0,0-1.032-1.433l3.129-3.137a1.365,1.365,0,0,0-1.932-1.928l-3.42,3.428a7.133,7.133,0,0,0-2.094-.622A8.517,8.517,0,0,1,62.608,51.7ZM52.151,72.8H50.968a1.363,1.363,0,0,0-2.539,0H47.037a1.364,1.364,0,0,0-2.128-1.677l-1.286,1.289a1.358,1.358,0,0,0-.27.388H40.576a10.794,10.794,0,0,1-1.75-5.508h21.65a10.794,10.794,0,0,1-1.75,5.508h-2.89a1.359,1.359,0,0,0-.27-.388l-1.286-1.289A1.364,1.364,0,0,0,52.151,72.8Zm-3.174-8.237a4.466,4.466,0,0,1,8.629,0Zm2.791-16.78A10.792,10.792,0,0,1,54.345,52.6a11.24,11.24,0,0,0-1.732,2.484,1.356,1.356,0,0,0-.711-.2H50.084a1.365,1.365,0,1,0,0,2.729h1.6a11.3,11.3,0,0,0-.21,1.143,7.137,7.137,0,0,0-1.544.6,6.889,6.889,0,0,0-4.2-3.209l0-.011a6.908,6.908,0,0,0-.548-1.748ZM27.1,60.1a4.119,4.119,0,0,1-.181-.684,4.165,4.165,0,0,1,3.39-4.806,4.21,4.21,0,0,1,.72-.063,4.124,4.124,0,0,1,2.484.829,1.365,1.365,0,0,0,1.954-.339,4.132,4.132,0,0,1,2.76-1.806,4.211,4.211,0,0,1,.721-.063,4.139,4.139,0,0,1,4.086,3.44,4.184,4.184,0,0,1,.06.707,1.365,1.365,0,0,0,1.245,1.357,4.153,4.153,0,0,1,3.427,2.447,7.2,7.2,0,0,0-1.577,3.446H38.406a2.32,2.32,0,0,0-2.144,1.443,10.414,10.414,0,0,0-9.7-1.053,1.654,1.654,0,0,0-.925.927A10.455,10.455,0,0,0,25,68.307a4.152,4.152,0,0,1,1.388-6.51A1.365,1.365,0,0,0,27.1,60.1Zm4.068,12.33.372.373H28.261a7.733,7.733,0,0,1-.25-5.473,7.677,7.677,0,0,1,8.4,2.484A13.481,13.481,0,0,0,37.451,72.8H35.395l-2.3-2.3a1.365,1.365,0,0,0-1.932,1.928Zm-5.812.373H20.49a4.488,4.488,0,0,1,2.116-3.113,6.861,6.861,0,0,0,2.489,2.063A10.555,10.555,0,0,0,25.355,72.8ZM11.582,29.366H21.77v5.648H11.582Zm8.3,8.377V40.6H13.469V37.744ZM7.15,52.575h8.862a1.365,1.365,0,1,0,0-2.729H7.15V47.041a3.711,3.711,0,0,1,3.7-3.712H22.5a3.711,3.711,0,0,1,3.7,3.712v2.805H23.655a1.365,1.365,0,1,0,0,2.729H26.2v1.211a6.878,6.878,0,0,0-1.975,6.094l0,.014a6.9,6.9,0,0,0-2.891,6.853c.027.156.061.31.1.463a7.236,7.236,0,0,0-1.819,1.429H7.15Zm0,18.794H18.034a7.159,7.159,0,0,0-.3,1.433h-.23a2.282,2.282,0,0,0-2.278,2.28,34.534,34.534,0,0,0,.592,6.375c-.392-.031-.794-.048-1.2-.048a12.436,12.436,0,0,0-4.427.737c-1.842.727-2.352,1.76-2.463,2.475-.2.1-.387.2-.577.3V71.369ZM24.431,88.133a5.166,5.166,0,0,1,.966.969h-.051a8.479,8.479,0,0,1-3.738-1.185,9.836,9.836,0,0,1-1.566-1.063,1.365,1.365,0,0,0-1.764,0,9.778,9.778,0,0,1-1.565,1.063A8.479,8.479,0,0,1,12.975,89.1h-.051a5.16,5.16,0,0,1,.966-.969,1.365,1.365,0,0,0-.694-2.421,6.52,6.52,0,0,1-2.568-.742,7.773,7.773,0,0,1,3.991-.832,8.506,8.506,0,0,1,3.874.758,1.365,1.365,0,0,0,1.336,0,8.511,8.511,0,0,1,3.875-.758,7.773,7.773,0,0,1,3.99.832,6.516,6.516,0,0,1-2.569.742,1.365,1.365,0,0,0-.694,2.421Zm-2.73,16.61.047.253a6.215,6.215,0,0,0,.983,2.38H14.613c-6.552,0-11.883-4.852-11.883-10.816a10.72,10.72,0,0,1,6.158-9.474,5.864,5.864,0,0,0,1.569.8A3.233,3.233,0,0,0,10,89.241a2.223,2.223,0,0,0,.543,1.683,3.1,3.1,0,0,0,2.435.908,11.271,11.271,0,0,0,5.06-1.527q.6-.33,1.125-.7.528.364,1.125.7a11.275,11.275,0,0,0,5.06,1.527h0a3.1,3.1,0,0,0,2.434-.908,2.222,2.222,0,0,0,.543-1.683,3.233,3.233,0,0,0-.46-1.349,5.875,5.875,0,0,0,1.57-.8,11.041,11.041,0,0,1,5.849,7.021L25.63,97.776A6.24,6.24,0,0,0,21.7,104.744Zm50.248,1.349a3.531,3.531,0,0,1-2.717,1.268H67.8l-.895-4.832a1.365,1.365,0,0,0-2.684.5l.8,4.336-4.7,0-.605-3.267a1.365,1.365,0,0,0-2.684.5l.513,2.772-10.922,0-.822-4.438a1.365,1.365,0,0,0-2.684.5l.73,3.941-15.948.006h0a3.528,3.528,0,0,1-3.476-2.878l-.047-.253a3.511,3.511,0,0,1,2.214-3.919l5.364-2.038.4,2.157a1.365,1.365,0,0,0,1.34,1.116,1.383,1.383,0,0,0,.25-.023,1.365,1.365,0,0,0,1.093-1.591l-.49-2.644,7.962-3.025a1.365,1.365,0,0,0-.969-2.552l-3.7,1.407a13.83,13.83,0,0,0-7.25-8.515c-.111-.715-.62-1.748-2.463-2.475a12.435,12.435,0,0,0-4.427-.737,13.845,13.845,0,0,0-3.178.354v-.824a1.363,1.363,0,0,0-2.208-1.072,31.881,31.881,0,0,1-.356-4.336h44.45a1.365,1.365,0,1,0,0-2.729h-.558a13.509,13.509,0,0,0,1.36-5.917,2.322,2.322,0,0,0-2.1-2.309,3.6,3.6,0,0,1,1.86-.931,3.681,3.681,0,0,1,.629-.055,3.606,3.606,0,0,1,3.56,3,3.649,3.649,0,0,1,.053.617,1.365,1.365,0,0,0,1.245,1.358,3.618,3.618,0,0,1,3.245,2.983A3.567,3.567,0,0,1,71.7,72.8H70.236a1.365,1.365,0,1,0,0,2.729H80.843a31.456,31.456,0,0,1-.958,7.321l-7.4,4.366a6.265,6.265,0,0,0-8.249-4.11L49.008,88.894a1.365,1.365,0,0,0,.969,2.552l2.007-.762.623,3.364a1.365,1.365,0,0,0,1.34,1.116,1.382,1.382,0,0,0,.25-.023,1.365,1.365,0,0,0,1.093-1.59L54.577,89.7l10.632-4.039a3.542,3.542,0,0,1,2.995.22,3.506,3.506,0,0,1,1.742,2.426l2.761,14.905A3.49,3.49,0,0,1,71.95,106.093Zm4.869-10.682a1.365,1.365,0,0,0-.059,2.672l10.161,2.331-.254,1.7L74.888,100l-1.841-9.941L83.306,84l.855,1.513L75.507,91.3a1.365,1.365,0,0,0,1.005,2.477l13.593-2.5.3,1.634Z" transform="translate(0 -26.637)" fill="#81b03f"/>
          </g>
        </g>
      </g>
    </g>
  </g>
</svg>
