<svg xmlns="http://www.w3.org/2000/svg" width="206.359" height="193" viewBox="0 0 206.359 193">
  <g id="Group_8788" data-name="Group 8788" transform="translate(-219.999 -512)">
    <g id="Group_8635" data-name="Group 8635" transform="translate(220 512)">
      <path id="Shape_2" data-name="Shape 2" d="M634.514,1167.349a107.49,107.49,0,0,0-1.893-12.716c1.462-18.028-2.989-36.28-15.229-50.194a71.98,71.98,0,0,0-15.175-13,123.8,123.8,0,0,0-20.093-20.41c-28.829-22.565-59.35-18.48-84.787-7.6a100.607,100.607,0,0,0-33.952,23.415c-11.989,11.062-21.355,27.418-27.3,44.539-7.8,22.528-8.4,54.573,8.594,78.579.493.7.992,1.31,1.5,1.982.924,1.6,1.916,3.178,2.974,4.712,12.581,18.148,30.154,24.266,45.836,25.575.855.246,1.71.493,2.563.713,17.571,4.728,35.1,5.3,52.507,3.572C578.05,1243.756,640.113,1232,634.514,1167.349Zm-18.757-58.587c8.525,9.235,12.489,20.8,13.374,32.678a157.589,157.589,0,0,0-17.463-36.8C613.052,1105.959,614.438,1107.311,615.757,1108.761Zm-182.081,50.332a94.519,94.519,0,0,1,5.65-26.924c-4.5,17.642-6.246,40.333-.9,60.67A84.126,84.126,0,0,1,433.676,1159.093Zm60.658,79.033a122.982,122.982,0,0,1-19.777-7.625,75.977,75.977,0,0,1-27.335-21.948c-7.92-14.131-9.569-31.971-8.985-47.189,1.182-30.17,11.676-53.206,26.842-69.618,7.845-7.429,16.939-12.725,26.936-13.628,1.976-.161,1.475-5.166-.523-4.968a33.423,33.423,0,0,0-3.689.58c25.814-14.817,58.194-21.837,89.45-.73a89.405,89.405,0,0,1,14.8,12.867c-11.323-5.2-23.083-7.736-33.675-9.585a143.879,143.879,0,0,0-58.417,1.5c-4.385,1.049-8.724,2.062-13.059,3.033-1.905.419-.554,5.218,1.349,4.807,12.1-2.687,24.19-6.337,37.154-6.641a175.034,175.034,0,0,1,28.227,1.684c14.925,2.031,31.812,5.606,47.042,15.416a171.719,171.719,0,0,1,16.5,27.088,147.347,147.347,0,0,1,11.714,31.669,85.63,85.63,0,0,1-12.36,35.952c-17.083,26.547-44.637,36.033-68.306,41.706C530.906,1236.625,512.435,1240.221,494.335,1238.126ZM631.381,1177.2c-.637,31.119-22.734,46.332-39.874,54.239-19.392,8.97-40.521,11.865-60.873,11.82a140.172,140.172,0,0,1-17.783-1.245c20.953-1.614,42.252-5.081,62.8-13.648,21.065-8.744,43.83-24.234,53.469-55.523.668-2.187,1.22-4.429,1.729-6.65A86.824,86.824,0,0,1,631.381,1177.2Z" transform="translate(-428.51 -1054.415)" fill="#81b03f" opacity="0.2"/>
      <path id="Shape_2-2" data-name="Shape 2" d="M927.514,977.35a107.342,107.342,0,0,0-1.893-12.717c1.462-18.028-2.989-36.28-15.229-50.2a72.012,72.012,0,0,0-15.175-13,123.766,123.766,0,0,0-20.093-20.409c-28.829-22.566-59.35-18.479-84.786-7.6a100.578,100.578,0,0,0-33.953,23.416c-11.989,11.059-21.355,27.417-27.3,44.538-7.8,22.53-8.4,54.575,8.594,78.58.493.7.992,1.311,1.5,1.982.924,1.6,1.916,3.177,2.974,4.712,12.581,18.149,30.154,24.266,45.836,25.574.855.247,1.71.494,2.563.712,17.571,4.73,35.1,5.3,52.507,3.573C871.05,1053.755,933.113,1042,927.514,977.35Zm-18.757-58.588c8.525,9.233,12.489,20.8,13.374,32.677a157.556,157.556,0,0,0-17.463-36.8C906.052,915.959,907.438,917.31,908.757,918.762ZM726.676,969.093a94.536,94.536,0,0,1,5.65-26.925c-4.5,17.644-6.246,40.336-.9,60.673A84.13,84.13,0,0,1,726.676,969.093Zm60.658,79.034a123.212,123.212,0,0,1-19.777-7.624,76.011,76.011,0,0,1-27.335-21.953c-7.92-14.128-9.569-31.968-8.985-47.187,1.182-30.171,11.676-53.207,26.842-69.619,7.845-7.428,16.939-12.724,26.936-13.627,1.976-.159,1.475-5.165-.523-4.965a33.164,33.164,0,0,0-3.689.577c25.814-14.815,58.195-21.836,89.45-.728a89.263,89.263,0,0,1,14.8,12.866c-11.323-5.2-23.083-7.737-33.675-9.584a143.86,143.86,0,0,0-58.416,1.5c-4.385,1.049-8.724,2.064-13.059,3.032-1.905.422-.555,5.222,1.349,4.809,12.1-2.686,24.19-6.338,37.153-6.641a175.1,175.1,0,0,1,28.227,1.685c14.925,2.033,31.812,5.606,47.042,15.415a171.707,171.707,0,0,1,16.5,27.089,147.357,147.357,0,0,1,11.714,31.669,85.628,85.628,0,0,1-12.36,35.952c-17.083,26.547-44.637,36.034-68.307,41.707C823.906,1046.625,805.435,1050.224,787.335,1048.127ZM924.381,987.2c-.637,31.117-22.733,46.332-39.874,54.24-19.392,8.97-40.521,11.863-60.873,11.819a140.645,140.645,0,0,1-17.783-1.243c20.953-1.615,42.251-5.083,62.8-13.65,21.065-8.744,43.83-24.236,53.469-55.523.668-2.187,1.221-4.43,1.729-6.651A86.845,86.845,0,0,1,924.381,987.2Z" transform="translate(-723.839 -864.653)" fill="#81b03f" opacity="0.2"/>
    </g>
    <g id="_006-target" data-name="006-target" transform="translate(278.468 565.653)">
      <g id="XMLID_41_" transform="translate(0 0)">
        <path id="XMLID_4218_" d="M310.374,129.274a1.8,1.8,0,0,0,2.546-2.546l-.024-.024a1.8,1.8,0,1,0-2.546,2.546Z" transform="translate(-254.051 -107.063)" fill="#81b03f"/>
        <path id="XMLID_4221_" d="M85.364,59.243l6.274-6.274A1.8,1.8,0,0,0,90.366,49.9H77.36a39.244,39.244,0,1,0-65.866,37.1A39.524,39.524,0,0,0,18.708,92.7l-5.423,9.581a1.8,1.8,0,0,0,1.566,2.687h9.271a1.8,1.8,0,0,0,1.567-.913l3.835-6.775a39.716,39.716,0,0,0,19.439,0l3.835,6.775a1.8,1.8,0,0,0,1.567.913h9.271a1.8,1.8,0,0,0,1.567-2.687L59.778,92.7a39.532,39.532,0,0,0,7.214-5.706A39.109,39.109,0,0,0,77.36,68.59H90.366a1.8,1.8,0,0,0,1.273-3.073Zm-3.292-1.8H69.51L73.457,53.5H86.02Zm-59,43.923H17.938l3.918-6.922a38.709,38.709,0,0,0,4.138,1.76Zm37.475,0H55.413L52.491,96.2a38.709,38.709,0,0,0,4.138-1.76Zm3.9-16.92a35.8,35.8,0,0,1-7.893,5.97c-.035.017-.071.033-.106.053s-.042.027-.063.04a35.176,35.176,0,0,1-6.9,2.89,1.782,1.782,0,0,0-.28.081,35.992,35.992,0,0,1-19.92,0A1.788,1.788,0,0,0,29,93.4a35.174,35.174,0,0,1-6.9-2.89c-.021-.013-.041-.027-.063-.04s-.07-.036-.105-.053a35.8,35.8,0,0,1-7.893-5.97,35.642,35.642,0,1,1,59.6-34.55h-.932a1.8,1.8,0,0,0-1.273.527L66.661,55.2a27.735,27.735,0,0,0-3.138-9.349,1.8,1.8,0,0,0-3.152,1.74,23.9,23.9,0,0,1,2.908,9.851H55.342a16.206,16.206,0,1,0,0,3.6h7.929A24.1,24.1,0,1,1,50.894,38.114a1.8,1.8,0,0,0,1.74-3.152,27.921,27.921,0,0,0-17.1-3.194A27.722,27.722,0,1,0,66.667,63.292l4.771,4.771a1.8,1.8,0,0,0,1.273.527h.932A35.526,35.526,0,0,1,64.445,84.445Zm-19.324-28.6a1.8,1.8,0,0,0-2.459-.659l-4.32,2.494a1.8,1.8,0,0,0,0,3.118l4.32,2.494a1.8,1.8,0,0,0,2.559-2.253h6.493a12.5,12.5,0,0,1-3.562,7.11h0a12.6,12.6,0,1,1,3.563-10.71H45.222A1.8,1.8,0,0,0,45.122,55.848ZM73.457,64.99,69.51,61.043H82.073L86.02,64.99Z" transform="translate(0 -20)" fill="#81b03f"/>
      </g>
    </g>
  </g>
</svg>
