<svg xmlns="http://www.w3.org/2000/svg" width="206.729" height="193.347" viewBox="0 0 206.729 193.347">
  <g id="Group_8694" data-name="Group 8694" transform="translate(-11.483 0.347)">
    <g id="Group_8683" data-name="Group 8683">
      <path id="Shape_2" data-name="Shape 2" d="M632.213,1167.392a108.692,108.692,0,0,0-1.872-12.721c1.445-18.035-2.955-36.294-15.057-50.213a71.391,71.391,0,0,0-15-13,123.143,123.143,0,0,0-19.865-20.418c-28.5-22.574-58.68-18.487-83.829-7.6a99.45,99.45,0,0,0-33.569,23.424c-11.854,11.066-21.114,27.429-26.991,44.556-7.712,22.537-8.3,54.594,8.5,78.609.487.7.981,1.31,1.482,1.982.913,1.6,1.895,3.179,2.94,4.714,12.439,18.155,29.813,24.275,45.318,25.585.846.246,1.691.494,2.534.713,17.373,4.73,34.7,5.306,51.914,3.573C576.387,1243.828,637.749,1232.07,632.213,1167.392Zm-18.545-58.609c8.429,9.239,12.348,20.811,13.223,32.69a158.481,158.481,0,0,0-17.265-36.815C610.994,1105.978,612.364,1107.331,613.668,1108.782Zm-180.024,50.351a95.52,95.52,0,0,1,5.586-26.934c-4.452,17.649-6.176,40.349-.888,60.693A85.076,85.076,0,0,1,433.644,1159.133Zm59.973,79.063a120.736,120.736,0,0,1-19.553-7.628,75.275,75.275,0,0,1-27.026-21.957c-7.83-14.137-9.461-31.983-8.884-47.207,1.169-30.181,11.544-53.226,26.539-69.644,7.757-7.432,16.747-12.73,26.631-13.633,1.953-.161,1.459-5.168-.517-4.969a32.637,32.637,0,0,0-3.647.581c25.522-14.822,57.537-21.846,88.44-.73a88.712,88.712,0,0,1,14.629,12.872c-11.195-5.206-22.822-7.739-33.295-9.589a140.633,140.633,0,0,0-57.757,1.5c-4.336,1.049-8.625,2.062-12.912,3.035-1.884.42-.548,5.22,1.334,4.809,11.967-2.687,23.917-6.339,36.734-6.643a171.062,171.062,0,0,1,27.909,1.685c14.756,2.032,31.453,5.608,46.51,15.422a172.168,172.168,0,0,1,16.314,27.1,148.5,148.5,0,0,1,11.582,31.681,86.327,86.327,0,0,1-12.221,35.966c-16.89,26.557-44.133,36.047-67.535,41.722C529.776,1236.694,511.513,1240.292,493.617,1238.2Zm135.5-60.952c-.629,31.131-22.477,46.35-39.424,54.26-19.173,8.974-40.064,11.87-60.186,11.825a137.005,137.005,0,0,1-17.582-1.245c20.717-1.615,41.774-5.083,62.088-13.654,20.827-8.747,43.335-24.243,52.865-55.544.661-2.188,1.207-4.431,1.709-6.652A87.883,87.883,0,0,1,629.116,1177.244Z" transform="translate(-414.351 -1054.488)" fill="#81b03f" opacity="0.2"/>
      <path id="Shape_2-2" data-name="Shape 2" d="M925.213,977.392a108.535,108.535,0,0,0-1.871-12.721c1.445-18.035-2.955-36.294-15.057-50.215a71.431,71.431,0,0,0-15-13,123.118,123.118,0,0,0-19.866-20.417c-28.5-22.574-58.68-18.487-83.829-7.6a99.416,99.416,0,0,0-33.569,23.425c-11.854,11.063-21.114,27.427-26.991,44.555-7.712,22.538-8.3,54.6,8.5,78.61.488.7.981,1.311,1.483,1.982.913,1.6,1.894,3.179,2.94,4.714,12.439,18.155,29.813,24.275,45.318,25.584.845.247,1.691.494,2.534.713,17.373,4.732,34.7,5.305,51.914,3.575C869.387,1053.826,930.749,1042.07,925.213,977.392Zm-18.545-58.61c8.429,9.237,12.348,20.808,13.223,32.689a158.449,158.449,0,0,0-17.265-36.813C903.994,915.978,905.364,917.33,906.668,918.782Zm-180.024,50.35A95.537,95.537,0,0,1,732.23,942.2c-4.452,17.651-6.175,40.351-.887,60.7A85.076,85.076,0,0,1,726.644,969.132Zm59.973,79.064a120.971,120.971,0,0,1-19.553-7.627,75.309,75.309,0,0,1-27.026-21.961c-7.83-14.133-9.461-31.98-8.884-47.2,1.169-30.182,11.544-53.227,26.539-69.645,7.757-7.431,16.747-12.729,26.631-13.632,1.953-.159,1.459-5.167-.517-4.967a32.443,32.443,0,0,0-3.647.577c25.522-14.821,57.537-21.844,88.44-.728a88.567,88.567,0,0,1,14.629,12.871c-11.195-5.206-22.822-7.739-33.3-9.588a140.609,140.609,0,0,0-57.757,1.5c-4.336,1.049-8.625,2.065-12.912,3.034-1.884.422-.548,5.224,1.334,4.811,11.967-2.687,23.916-6.34,36.734-6.644a171.142,171.142,0,0,1,27.909,1.686c14.757,2.034,31.453,5.608,46.51,15.421a172.135,172.135,0,0,1,16.314,27.1,148.517,148.517,0,0,1,11.582,31.681,86.324,86.324,0,0,1-12.221,35.966c-16.89,26.557-44.133,36.047-67.535,41.723C822.776,1046.693,804.513,1050.293,786.617,1048.2Zm135.5-60.951c-.629,31.129-22.477,46.349-39.424,54.26-19.173,8.973-40.064,11.867-60.186,11.823a137.449,137.449,0,0,1-17.583-1.243c20.717-1.615,41.774-5.085,62.088-13.655,20.827-8.748,43.335-24.245,52.865-55.544.661-2.187,1.207-4.431,1.709-6.653A87.933,87.933,0,0,1,922.116,987.245Z" transform="translate(-712.355 -865)" fill="#81b03f" opacity="0.2"/>
    </g>
    <g id="_002-appointment" data-name="002-appointment" transform="translate(72.791 55)">
      <g id="Group_8650" data-name="Group 8650">
        <g id="Group_8649" data-name="Group 8649">
          <path id="Path_2979" data-name="Path 2979" d="M75.053,7.148H67.309V4.874a4.874,4.874,0,1,0-9.747,0V7.148H30.27V4.874a4.874,4.874,0,0,0-9.747,0V7.208a1.621,1.621,0,0,0-.433-.06H13.617A8.132,8.132,0,0,0,5.495,15.27V42.941a1.625,1.625,0,0,0,3.249,0V23.88H67.309a1.625,1.625,0,0,0,0-3.249H8.744V15.27A4.879,4.879,0,0,1,13.617,10.4H20.09a1.628,1.628,0,0,0,.433-.06v2.091a4.874,4.874,0,0,0,9.747,0V10.4H57.562v2.031a4.874,4.874,0,1,0,9.747,0V10.4h7.744a4.879,4.879,0,0,1,4.874,4.874V77a2.925,2.925,0,0,1-5.85,0V72.8a1.625,1.625,0,0,0-1.625-1.625h-18.9a1.625,1.625,0,0,0,0,3.249H70.827V77a6.137,6.137,0,0,0,.738,2.925H6.173A2.927,2.927,0,0,1,3.249,77V74.423H39.61a1.625,1.625,0,0,0,0-3.249H23.378a13.321,13.321,0,1,0-17.36,0H1.625A1.625,1.625,0,0,0,0,72.8V77a6.18,6.18,0,0,0,6.173,6.173H77A6.181,6.181,0,0,0,83.175,77V15.27A8.132,8.132,0,0,0,75.053,7.148Zm-48.032,5.28a1.625,1.625,0,0,1-3.249,0V4.874a1.625,1.625,0,0,1,3.249,0Zm37.039,0a1.625,1.625,0,1,1-3.249,0V4.874a1.625,1.625,0,1,1,3.249,0ZM4.626,61.082A10.072,10.072,0,1,1,14.7,71.154,10.083,10.083,0,0,1,4.626,61.082Z" fill="#81b03f"/>
        </g>
      </g>
      <g id="Group_8652" data-name="Group 8652" transform="translate(73.305 20.631)">
        <g id="Group_8651" data-name="Group 8651">
          <path id="Path_2980" data-name="Path 2980" d="M454.013,127.476a1.623,1.623,0,1,0,.476,1.149A1.636,1.636,0,0,0,454.013,127.476Z" transform="translate(-451.24 -127)" fill="#81b03f"/>
        </g>
      </g>
      <g id="Group_8654" data-name="Group 8654" transform="translate(45.743 71.175)">
        <g id="Group_8653" data-name="Group 8653">
          <path id="Path_2981" data-name="Path 2981" d="M284.353,438.6a1.625,1.625,0,1,0,.476,1.149A1.635,1.635,0,0,0,284.353,438.6Z" transform="translate(-281.58 -438.13)" fill="#81b03f"/>
        </g>
      </g>
      <g id="Group_8656" data-name="Group 8656" transform="translate(30.581 49.385)">
        <g id="Group_8655" data-name="Group 8655">
          <path id="Path_2982" data-name="Path 2982" d="M194.418,304a6.173,6.173,0,1,0,6.173,6.173A6.18,6.18,0,0,0,194.418,304Zm0,9.1a2.924,2.924,0,1,1,2.924-2.924A2.927,2.927,0,0,1,194.418,313.1Z" transform="translate(-188.245 -304)" fill="#81b03f"/>
        </g>
      </g>
      <g id="Group_8658" data-name="Group 8658" transform="translate(45.743 49.385)">
        <g id="Group_8657" data-name="Group 8657">
          <path id="Path_2983" data-name="Path 2983" d="M287.751,304a6.173,6.173,0,1,0,6.173,6.173A6.18,6.18,0,0,0,287.751,304Zm0,9.1a2.924,2.924,0,1,1,2.924-2.924A2.927,2.927,0,0,1,287.751,313.1Z" transform="translate(-281.578 -304)" fill="#81b03f"/>
        </g>
      </g>
      <g id="Group_8660" data-name="Group 8660" transform="translate(60.905 49.385)">
        <g id="Group_8659" data-name="Group 8659">
          <path id="Path_2984" data-name="Path 2984" d="M381.085,304a6.173,6.173,0,1,0,6.173,6.173A6.18,6.18,0,0,0,381.085,304Zm0,9.1a2.924,2.924,0,1,1,2.924-2.924A2.927,2.927,0,0,1,381.085,313.1Z" transform="translate(-374.912 -304)" fill="#81b03f"/>
        </g>
      </g>
      <g id="Group_8662" data-name="Group 8662" transform="translate(15.419 32.49)">
        <g id="Group_8661" data-name="Group 8661">
          <path id="Path_2985" data-name="Path 2985" d="M101.085,200a6.173,6.173,0,1,0,6.173,6.173A6.18,6.18,0,0,0,101.085,200Zm0,9.1a2.924,2.924,0,1,1,2.924-2.924A2.928,2.928,0,0,1,101.085,209.1Z" transform="translate(-94.912 -200)" fill="#81b03f"/>
        </g>
      </g>
      <g id="Group_8664" data-name="Group 8664" transform="translate(45.743 32.49)">
        <g id="Group_8663" data-name="Group 8663">
          <path id="Path_2986" data-name="Path 2986" d="M287.751,200a6.173,6.173,0,1,0,6.173,6.173A6.18,6.18,0,0,0,287.751,200Zm0,9.1a2.924,2.924,0,1,1,2.924-2.924A2.928,2.928,0,0,1,287.751,209.1Z" transform="translate(-281.578 -200)" fill="#81b03f"/>
        </g>
      </g>
      <g id="Group_8666" data-name="Group 8666" transform="translate(60.905 32.49)">
        <g id="Group_8665" data-name="Group 8665">
          <path id="Path_2987" data-name="Path 2987" d="M381.085,200a6.173,6.173,0,1,0,6.173,6.173A6.18,6.18,0,0,0,381.085,200Zm0,9.1a2.924,2.924,0,1,1,2.924-2.924A2.928,2.928,0,0,1,381.085,209.1Z" transform="translate(-374.912 -200)" fill="#81b03f"/>
        </g>
      </g>
      <g id="Group_8668" data-name="Group 8668" transform="translate(30.581 32.49)">
        <g id="Group_8667" data-name="Group 8667">
          <path id="Path_2988" data-name="Path 2988" d="M194.418,200a6.173,6.173,0,1,0,6.173,6.173A6.18,6.18,0,0,0,194.418,200Zm0,9.1a2.924,2.924,0,1,1,2.924-2.924A2.928,2.928,0,0,1,194.418,209.1Z" transform="translate(-188.245 -200)" fill="#81b03f"/>
        </g>
      </g>
      <g id="Group_8670" data-name="Group 8670" transform="translate(8.317 56.647)">
        <g id="Group_8669" data-name="Group 8669">
          <path id="Path_2989" data-name="Path 2989" d="M63.363,349.176a1.625,1.625,0,0,0-2.3,0l-5.29,5.291-1.808-1.808a1.625,1.625,0,1,0-2.3,2.3l2.957,2.956a1.624,1.624,0,0,0,2.3,0l6.439-6.439A1.625,1.625,0,0,0,63.363,349.176Z" transform="translate(-51.194 -348.7)" fill="#81b03f"/>
        </g>
      </g>
    </g>
  </g>
</svg>
