<svg xmlns="http://www.w3.org/2000/svg" width="206.359" height="193" viewBox="0 0 206.359 193">
  <g id="Group_8787" data-name="Group 8787" transform="translate(-594.999 -168)">
    <g id="Group_8632" data-name="Group 8632" transform="translate(595 168)">
      <path id="Shape_2" data-name="Shape 2" d="M634.514,1167.349a107.488,107.488,0,0,0-1.893-12.716c1.462-18.028-2.989-36.28-15.229-50.194a71.98,71.98,0,0,0-15.175-13,123.8,123.8,0,0,0-20.093-20.41c-28.829-22.565-59.35-18.48-84.787-7.6a100.608,100.608,0,0,0-33.953,23.415c-11.989,11.062-21.355,27.418-27.3,44.539-7.8,22.529-8.4,54.573,8.594,78.579.493.7.992,1.31,1.5,1.982.924,1.6,1.916,3.178,2.974,4.712,12.581,18.148,30.154,24.266,45.836,25.575.855.246,1.71.493,2.563.713,17.571,4.728,35.1,5.3,52.507,3.572C578.05,1243.756,640.113,1232,634.514,1167.349Zm-18.757-58.587c8.525,9.235,12.489,20.8,13.374,32.678a157.6,157.6,0,0,0-17.463-36.8C613.052,1105.959,614.438,1107.311,615.757,1108.761Zm-182.081,50.332a94.521,94.521,0,0,1,5.65-26.924c-4.5,17.642-6.246,40.333-.9,60.67A84.125,84.125,0,0,1,433.676,1159.093Zm60.658,79.033a122.983,122.983,0,0,1-19.777-7.625,75.977,75.977,0,0,1-27.335-21.948c-7.92-14.131-9.569-31.971-8.985-47.189,1.182-30.17,11.676-53.206,26.842-69.618,7.845-7.429,16.939-12.725,26.936-13.628,1.976-.161,1.476-5.166-.523-4.968a33.449,33.449,0,0,0-3.688.58c25.814-14.817,58.194-21.837,89.45-.73a89.408,89.408,0,0,1,14.8,12.867c-11.323-5.2-23.083-7.736-33.675-9.585a143.878,143.878,0,0,0-58.417,1.5c-4.385,1.049-8.724,2.062-13.059,3.033-1.905.419-.555,5.218,1.349,4.807,12.1-2.686,24.19-6.337,37.154-6.641a175.035,175.035,0,0,1,28.227,1.684c14.925,2.031,31.812,5.606,47.042,15.416a171.712,171.712,0,0,1,16.5,27.088,147.345,147.345,0,0,1,11.714,31.668,85.628,85.628,0,0,1-12.36,35.952c-17.083,26.547-44.637,36.033-68.306,41.707C530.906,1236.625,512.435,1240.221,494.335,1238.126ZM631.381,1177.2c-.637,31.119-22.734,46.332-39.874,54.239-19.392,8.97-40.521,11.865-60.873,11.82a140.173,140.173,0,0,1-17.783-1.245c20.953-1.614,42.252-5.081,62.8-13.648,21.065-8.744,43.83-24.234,53.469-55.523.668-2.187,1.22-4.429,1.729-6.65A86.838,86.838,0,0,1,631.381,1177.2Z" transform="translate(-428.51 -1054.415)" fill="#81b03f" opacity="0.2"/>
      <path id="Shape_2-2" data-name="Shape 2" d="M927.514,977.35a107.359,107.359,0,0,0-1.893-12.717c1.462-18.028-2.989-36.28-15.229-50.2a72.01,72.01,0,0,0-15.175-13,123.768,123.768,0,0,0-20.093-20.409c-28.829-22.566-59.35-18.479-84.786-7.6a100.578,100.578,0,0,0-33.953,23.416c-11.989,11.059-21.355,27.417-27.3,44.538-7.8,22.529-8.4,54.575,8.594,78.58.493.7.992,1.311,1.5,1.982.924,1.6,1.916,3.177,2.974,4.712,12.581,18.149,30.154,24.266,45.836,25.574.855.247,1.71.494,2.563.712,17.571,4.73,35.1,5.3,52.507,3.573C871.05,1053.755,933.113,1042,927.514,977.35Zm-18.757-58.588c8.525,9.233,12.489,20.8,13.374,32.677a157.56,157.56,0,0,0-17.463-36.8C906.052,915.959,907.438,917.31,908.757,918.762ZM726.676,969.093a94.536,94.536,0,0,1,5.65-26.925c-4.5,17.644-6.246,40.336-.9,60.673A84.128,84.128,0,0,1,726.676,969.093Zm60.658,79.034a123.223,123.223,0,0,1-19.777-7.624,76.011,76.011,0,0,1-27.335-21.953c-7.92-14.128-9.569-31.968-8.985-47.187,1.182-30.171,11.676-53.207,26.842-69.619,7.845-7.428,16.939-12.724,26.936-13.627,1.976-.159,1.475-5.165-.523-4.965a33.161,33.161,0,0,0-3.689.577c25.814-14.815,58.195-21.836,89.45-.728a89.263,89.263,0,0,1,14.8,12.866c-11.323-5.2-23.083-7.737-33.675-9.584a143.86,143.86,0,0,0-58.416,1.5c-4.385,1.049-8.724,2.064-13.059,3.032-1.905.422-.555,5.222,1.349,4.809,12.1-2.686,24.19-6.338,37.153-6.641a175.1,175.1,0,0,1,28.227,1.685c14.925,2.033,31.812,5.606,47.042,15.415a171.707,171.707,0,0,1,16.5,27.089,147.354,147.354,0,0,1,11.714,31.669,85.626,85.626,0,0,1-12.36,35.952c-17.083,26.547-44.637,36.034-68.307,41.707C823.906,1046.625,805.435,1050.224,787.335,1048.127ZM924.381,987.2c-.637,31.117-22.733,46.332-39.874,54.24-19.392,8.97-40.521,11.863-60.873,11.819a140.646,140.646,0,0,1-17.783-1.243c20.953-1.615,42.251-5.083,62.8-13.65,21.065-8.744,43.83-24.236,53.469-55.523.668-2.187,1.22-4.43,1.729-6.651A86.846,86.846,0,0,1,924.381,987.2Z" transform="translate(-723.839 -864.653)" fill="#81b03f" opacity="0.2"/>
    </g>
    <g id="_003-diet-1" data-name="003-diet-1" transform="translate(653.468 213.765)">
      <path id="Path_2935" data-name="Path 2935" d="M95.418,71.368h1.548a1.548,1.548,0,0,0,0-3.1H95.418a1.548,1.548,0,0,0,0,3.1Zm0,0" transform="translate(-76.848 -55.892)" fill="#81b03f"/>
      <path id="Path_2936" data-name="Path 2936" d="M138.083,71.368H158.2a1.548,1.548,0,0,0,0-3.1H138.083a1.548,1.548,0,1,0,0,3.1Zm0,0" transform="translate(-111.775 -55.892)" fill="#81b03f"/>
      <path id="Path_2937" data-name="Path 2937" d="M78.809,49.522h-3.4a7.227,7.227,0,0,0-2.078.31,1.431,1.431,0,0,0-.154.045,7.168,7.168,0,0,0-2.247,1.271c.336-3.56,2.1-8.728,8.787-12.678A1.548,1.548,0,0,0,78.148,35.8a20.383,20.383,0,0,0-9.167,10.273c-.082-.268-.17-.529-.266-.774A12.938,12.938,0,0,0,65,40.043V13.929a4.642,4.642,0,0,0-4.642-4.643H53.883a4.644,4.644,0,0,0-4.358-3.1h-8.29a9.254,9.254,0,0,0-17.465,0h-8.29a4.643,4.643,0,0,0-4.357,3.1H4.647A4.643,4.643,0,0,0,0,13.929V88.21a4.643,4.643,0,0,0,4.643,4.643H60.358a4.53,4.53,0,0,0,2.08-.5,19.008,19.008,0,0,0,4.313.5h5.785c11.2,0,20.321-9.717,20.321-21.666v-6.7C92.856,56.239,86.555,49.522,78.809,49.522ZM65.82,46.412a20.785,20.785,0,0,1,.865,3.73c-.154-.067-.293-.155-.448-.206a7.025,7.025,0,0,0-2.374-.413H60.477c-.424,0-.842.029-1.257.068-.038-.011-.067-.035-.107-.043-5.122-1.026-5.051-7-4.858-9.14a25.145,25.145,0,0,1,2.975-.166h.033a9.131,9.131,0,0,1,8.558,6.177ZM50.1,83.568H9.289v-65h1.833a4.642,4.642,0,0,0,4.357,3.1H49.525a4.643,4.643,0,0,0,4.358-3.1h1.832V37.165c-4,.142-4.262,1.255-4.4,1.891-.545,3.184-.268,8.821,3.417,11.8a15.038,15.038,0,0,0-8.3,13.633v6.7A22.513,22.513,0,0,0,50.1,83.568ZM61.9,13.929V38.146a12.382,12.382,0,0,0-3.1-.848V18.572a3.1,3.1,0,0,0-3.1-3.1H54.168v-3.1h6.19A1.547,1.547,0,0,1,61.9,13.929ZM15.479,9.286h9.44a1.272,1.272,0,0,0,.154-.033,1.492,1.492,0,0,0,.285-.057,1.458,1.458,0,0,0,.283-.118,1.488,1.488,0,0,0,.606-.606,1.382,1.382,0,0,0,.12-.283,1.291,1.291,0,0,0,.062-.144,6.19,6.19,0,0,1,12.129,0,1.555,1.555,0,0,0,.065.164,1.791,1.791,0,0,0,.087.221,1.49,1.49,0,0,0,.188.28,1.46,1.46,0,0,0,.145.164,1.531,1.531,0,0,0,.3.2,1.211,1.211,0,0,0,.74.209h9.44a1.548,1.548,0,0,1,1.548,1.548v6.19a1.547,1.547,0,0,1-1.548,1.547H15.479a1.547,1.547,0,0,1-1.547-1.547v-6.19A1.547,1.547,0,0,1,15.479,9.286ZM4.647,89.758A1.548,1.548,0,0,1,3.1,88.21V13.929a1.548,1.548,0,0,1,1.548-1.548h6.19v3.1H9.289a3.1,3.1,0,0,0-3.1,3.1v65a3.1,3.1,0,0,0,3.1,3.1H52.555a20.7,20.7,0,0,0,3.779,3.1ZM89.761,71.188c0,10.239-7.729,18.571-17.226,18.571H66.75c-9.5,0-17.226-8.329-17.226-18.571v-6.7c0-6.541,4.913-11.869,10.952-11.869h3.412a3.962,3.962,0,0,1,1.3.232,4.631,4.631,0,0,1,2.907,4.424v1.534a1.548,1.548,0,1,0,3.1,0V57.27a4.633,4.633,0,0,1,2.888-4.431l.074-.021a4.222,4.222,0,0,1,1.238-.2h3.417c6.04,0,10.953,5.331,10.953,11.872Zm0,0" transform="translate(-0.004)" fill="#81b03f"/>
      <path id="Path_2938" data-name="Path 2938" d="M295.838,307.274c-.234.076-5.7,1.984-5.7,9.206a1.548,1.548,0,1,0,3.1,0c0-4.911,3.423-6.211,3.6-6.274a1.548,1.548,0,1,0-.992-2.932Zm0,0" transform="translate(-237.521 -251.482)" fill="#81b03f"/>
      <path id="Path_2939" data-name="Path 2939" d="M76.007,145.074H71.365a3.1,3.1,0,0,0-3.1,3.1v4.643a3.1,3.1,0,0,0,3.1,3.1h4.643a3.1,3.1,0,0,0,3.1-3.1v-4.643A3.1,3.1,0,0,0,76.007,145.074Zm-4.643,7.738v-4.643h4.643v4.643Zm0,0" transform="translate(-55.889 -118.765)" fill="#81b03f"/>
      <path id="Path_2940" data-name="Path 2940" d="M76.007,221.875H71.365a3.1,3.1,0,0,0-3.1,3.1v4.642a3.1,3.1,0,0,0,3.1,3.1h4.643a3.1,3.1,0,0,0,3.1-3.1V224.97A3.1,3.1,0,0,0,76.007,221.875Zm-4.643,7.737V224.97h4.643v4.642Zm0,0" transform="translate(-55.889 -181.638)" fill="#81b03f"/>
      <path id="Path_2941" data-name="Path 2941" d="M76.007,298.676H71.365a3.1,3.1,0,0,0-3.1,3.1v4.642a3.1,3.1,0,0,0,3.1,3.1h4.643a3.1,3.1,0,0,0,3.1-3.1v-4.642A3.1,3.1,0,0,0,76.007,298.676Zm-4.643,7.737v-4.642h4.643v4.642Zm0,0" transform="translate(-55.889 -244.511)" fill="#81b03f"/>
      <path id="Path_2942" data-name="Path 2942" d="M76.007,375.473H71.365a3.1,3.1,0,0,0-3.1,3.1v4.643a3.1,3.1,0,0,0,3.1,3.1h4.643a3.1,3.1,0,0,0,3.1-3.1v-4.643A3.1,3.1,0,0,0,76.007,375.473Zm-4.643,7.738v-4.643h4.643v4.643Zm0,0" transform="translate(-55.889 -307.38)" fill="#81b03f"/>
      <path id="Path_2943" data-name="Path 2943" d="M146.618,173.771h21.665a1.548,1.548,0,1,0,0-3.1H146.618a1.548,1.548,0,1,0,0,3.1Zm0,0" transform="translate(-118.762 -139.723)" fill="#81b03f"/>
      <path id="Path_2944" data-name="Path 2944" d="M163.64,247.473H146.618a1.548,1.548,0,1,0,0,3.1H163.64a1.548,1.548,0,1,0,0-3.1Zm0,0" transform="translate(-118.762 -202.593)" fill="#81b03f"/>
      <path id="Path_2945" data-name="Path 2945" d="M160.545,324.273H146.618a1.548,1.548,0,1,0,0,3.1h13.927a1.548,1.548,0,1,0,0-3.1Zm0,0" transform="translate(-118.762 -265.466)" fill="#81b03f"/>
      <path id="Path_2946" data-name="Path 2946" d="M160.545,401.074H146.618a1.548,1.548,0,1,0,0,3.1h13.927a1.548,1.548,0,1,0,0-3.1Zm0,0" transform="translate(-118.762 -328.339)" fill="#81b03f"/>
    </g>
  </g>
</svg>
