<svg xmlns="http://www.w3.org/2000/svg" width="206.359" height="193" viewBox="0 0 206.359 193">
  <g id="Group_8695" data-name="Group 8695" transform="translate(-969.999 -168)">
    <g id="Group_8634" data-name="Group 8634" transform="translate(970 168)">
      <path id="Shape_2" data-name="Shape 2" d="M634.514,1167.349a107.49,107.49,0,0,0-1.893-12.716c1.462-18.028-2.989-36.28-15.229-50.194a71.98,71.98,0,0,0-15.175-13,123.8,123.8,0,0,0-20.093-20.41c-28.829-22.565-59.35-18.48-84.787-7.6a100.607,100.607,0,0,0-33.952,23.415c-11.989,11.062-21.355,27.418-27.3,44.539-7.8,22.528-8.4,54.573,8.594,78.579.493.7.992,1.31,1.5,1.982.924,1.6,1.916,3.178,2.974,4.712,12.581,18.148,30.154,24.266,45.836,25.575.855.246,1.71.493,2.563.713,17.571,4.728,35.1,5.3,52.507,3.572C578.05,1243.756,640.113,1232,634.514,1167.349Zm-18.757-58.587c8.525,9.235,12.489,20.8,13.374,32.678a157.589,157.589,0,0,0-17.463-36.8C613.052,1105.959,614.438,1107.311,615.757,1108.761Zm-182.081,50.332a94.519,94.519,0,0,1,5.65-26.924c-4.5,17.642-6.246,40.333-.9,60.67A84.126,84.126,0,0,1,433.676,1159.093Zm60.658,79.033a122.982,122.982,0,0,1-19.777-7.625,75.977,75.977,0,0,1-27.335-21.948c-7.92-14.131-9.569-31.971-8.985-47.189,1.182-30.17,11.676-53.206,26.842-69.618,7.845-7.429,16.939-12.725,26.936-13.628,1.976-.161,1.475-5.166-.523-4.968a33.423,33.423,0,0,0-3.689.58c25.814-14.817,58.194-21.837,89.45-.73a89.405,89.405,0,0,1,14.8,12.867c-11.323-5.2-23.083-7.736-33.675-9.585a143.879,143.879,0,0,0-58.417,1.5c-4.385,1.049-8.724,2.062-13.059,3.033-1.905.419-.554,5.218,1.349,4.807,12.1-2.687,24.19-6.337,37.154-6.641a175.034,175.034,0,0,1,28.227,1.684c14.925,2.031,31.812,5.606,47.042,15.416a171.719,171.719,0,0,1,16.5,27.088,147.347,147.347,0,0,1,11.714,31.669,85.63,85.63,0,0,1-12.36,35.952c-17.083,26.547-44.637,36.033-68.306,41.706C530.906,1236.625,512.435,1240.221,494.335,1238.126ZM631.381,1177.2c-.637,31.119-22.734,46.332-39.874,54.239-19.392,8.97-40.521,11.865-60.873,11.82a140.172,140.172,0,0,1-17.783-1.245c20.953-1.614,42.252-5.081,62.8-13.648,21.065-8.744,43.83-24.234,53.469-55.523.668-2.187,1.22-4.429,1.729-6.65A86.824,86.824,0,0,1,631.381,1177.2Z" transform="translate(-428.51 -1054.415)" fill="#81b03f" opacity="0.2"/>
      <path id="Shape_2-2" data-name="Shape 2" d="M927.514,977.35a107.342,107.342,0,0,0-1.893-12.717c1.462-18.028-2.989-36.28-15.229-50.2a72.012,72.012,0,0,0-15.175-13,123.766,123.766,0,0,0-20.093-20.409c-28.829-22.566-59.35-18.479-84.786-7.6a100.578,100.578,0,0,0-33.953,23.416c-11.989,11.059-21.355,27.417-27.3,44.538-7.8,22.53-8.4,54.575,8.594,78.58.493.7.992,1.311,1.5,1.982.924,1.6,1.916,3.177,2.974,4.712,12.581,18.149,30.154,24.266,45.836,25.574.855.247,1.71.494,2.563.712,17.571,4.73,35.1,5.3,52.507,3.573C871.05,1053.755,933.113,1042,927.514,977.35Zm-18.757-58.588c8.525,9.233,12.489,20.8,13.374,32.677a157.556,157.556,0,0,0-17.463-36.8C906.052,915.959,907.438,917.31,908.757,918.762ZM726.676,969.093a94.536,94.536,0,0,1,5.65-26.925c-4.5,17.644-6.246,40.336-.9,60.673A84.13,84.13,0,0,1,726.676,969.093Zm60.658,79.034a123.212,123.212,0,0,1-19.777-7.624,76.011,76.011,0,0,1-27.335-21.953c-7.92-14.128-9.569-31.968-8.985-47.187,1.182-30.171,11.676-53.207,26.842-69.619,7.845-7.428,16.939-12.724,26.936-13.627,1.976-.159,1.475-5.165-.523-4.965a33.164,33.164,0,0,0-3.689.577c25.814-14.815,58.195-21.836,89.45-.728a89.263,89.263,0,0,1,14.8,12.866c-11.323-5.2-23.083-7.737-33.675-9.584a143.86,143.86,0,0,0-58.416,1.5c-4.385,1.049-8.724,2.064-13.059,3.032-1.905.422-.555,5.222,1.349,4.809,12.1-2.686,24.19-6.338,37.153-6.641a175.1,175.1,0,0,1,28.227,1.685c14.925,2.033,31.812,5.606,47.042,15.415a171.707,171.707,0,0,1,16.5,27.089,147.357,147.357,0,0,1,11.714,31.669,85.628,85.628,0,0,1-12.36,35.952c-17.083,26.547-44.637,36.034-68.307,41.707C823.906,1046.625,805.435,1050.224,787.335,1048.127ZM924.381,987.2c-.637,31.117-22.733,46.332-39.874,54.24-19.392,8.97-40.521,11.863-60.873,11.819a140.645,140.645,0,0,1-17.783-1.243c20.953-1.615,42.251-5.083,62.8-13.65,21.065-8.744,43.83-24.236,53.469-55.523.668-2.187,1.221-4.43,1.729-6.651A86.845,86.845,0,0,1,924.381,987.2Z" transform="translate(-723.839 -864.653)" fill="#81b03f" opacity="0.2"/>
    </g>
    <g id="_004-whatsapp" data-name="004-whatsapp" transform="translate(1029.844 218.886)">
      <g id="Group_8629" data-name="Group 8629" transform="translate(0 0)">
        <g id="Group_8628" data-name="Group 8628" transform="translate(0 0)">
          <path id="Path_2947" data-name="Path 2947" d="M43.544-1A44.659,44.659,0,0,0,4.614,66.039L-2,89.788l24.2-6.463c7.065,3.758,14.43,5.862,21.344,5.862,24.5,0,45.244-20.743,45.244-45.394S68.5-1,43.544-1Zm0,87.181c-6.614,0-13.678-2.1-20.442-5.862l-.6-.3L2.209,85.58,7.77,65.588l-.3-.6A42.456,42.456,0,0,1,1.607,43.793,41.922,41.922,0,0,1,43.544,2.006c23.3,0,42.238,18.789,42.238,41.787S66.392,86.181,43.544,86.181Z" transform="translate(2 1)" fill="#81b03f"/>
          <path id="Path_2948" data-name="Path 2948" d="M80.752,40.967A37.4,37.4,0,0,0,43.324,78.244a38.966,38.966,0,0,0,5.862,20.442l.6.752-4.058,14.28L60.46,109.96l.752.451A37.4,37.4,0,0,0,118.48,78.244C118.48,57.652,101.495,40.967,80.752,40.967Zm-.15,72.3a34.887,34.887,0,0,1-17.887-5.411l-1.8-1.2-10.973,2.706,3.006-10.522-1.2-1.954A34.119,34.119,0,0,1,46.33,78.244,34.481,34.481,0,0,1,80.752,43.973c19.09,0,34.722,15.482,34.722,34.271A35.124,35.124,0,0,1,80.6,113.267Z" transform="translate(-35.207 -33.451)" fill="#81b03f"/>
          <path id="Path_2949" data-name="Path 2949" d="M170.1,158.172l-9.47-4.359a3.011,3.011,0,0,0-3.607.9l-3.607,4.66c-2.706-1.052-10.221-4.359-14.58-12.476l3.307-3.908a3.024,3.024,0,0,0,.451-3.157l-4.058-9.62a2.765,2.765,0,0,0-2.555-1.8l-2.856-.15a4.877,4.877,0,0,0-3.457,1.2,14.3,14.3,0,0,0-4.66,7.215c-1.052,4.96.6,10.822,4.81,16.534,2.555,3.607,10.372,14.28,25.4,18.488a15.205,15.205,0,0,0,4.359.6,14.24,14.24,0,0,0,7.065-1.954,10.781,10.781,0,0,0,4.66-6.764l.451-2.1A3.026,3.026,0,0,0,170.1,158.172Zm-1.954,4.66a7.843,7.843,0,0,1-3.307,4.81,10.6,10.6,0,0,1-8.868,1.052c-13.979-3.908-21.344-13.979-23.749-17.286-3.607-4.96-5.111-10.071-4.209-14.129a11.167,11.167,0,0,1,3.758-5.712,1.707,1.707,0,0,1,1.2-.451l3.006.3,4.058,9.47-3.607,4.058a2.787,2.787,0,0,0-.3,2.856,30.284,30.284,0,0,0,16.685,14.28,2.648,2.648,0,0,0,2.856-.9l3.607-4.81,9.47,4.359Z" transform="translate(-102.01 -105.112)" fill="#81b03f"/>
        </g>
      </g>
    </g>
  </g>
</svg>
