<svg xmlns="http://www.w3.org/2000/svg" width="205.291" height="192" viewBox="0 0 205.291 192">
  <g id="Group_8786" data-name="Group 8786" transform="translate(-594.999 -512)">
    <g id="Group_8636" data-name="Group 8636" transform="translate(595 512)">
      <path id="Shape_2" data-name="Shape 2" d="M633.458,1166.765a106.922,106.922,0,0,0-1.883-12.65c1.454-17.935-2.973-36.092-15.15-49.934a71.6,71.6,0,0,0-15.1-12.932,123.15,123.15,0,0,0-19.988-20.3c-28.68-22.448-59.043-18.384-84.347-7.557a100.087,100.087,0,0,0-33.777,23.294c-11.927,11-21.245,27.276-27.157,44.308-7.76,22.412-8.354,54.291,8.55,78.172.49.692.987,1.3,1.492,1.971.919,1.59,1.906,3.162,2.959,4.688,12.516,18.054,30,24.14,45.6,25.443.851.245,1.7.491,2.55.709,17.48,4.7,34.915,5.276,52.235,3.553C577.287,1242.776,639.029,1231.084,633.458,1166.765Zm-18.66-58.284c8.481,9.188,12.425,20.695,13.3,32.508a156.777,156.777,0,0,0-17.372-36.61C612.108,1105.693,613.487,1107.038,614.8,1108.481Zm-181.137,50.071a94.031,94.031,0,0,1,5.621-26.784c-4.479,17.551-6.214,40.125-.893,60.356A83.692,83.692,0,0,1,433.662,1158.552Zm60.344,78.624a122.337,122.337,0,0,1-19.674-7.586,75.581,75.581,0,0,1-27.193-21.835c-7.879-14.058-9.519-31.805-8.939-46.944,1.176-30.013,11.616-52.93,26.7-69.257,7.8-7.39,16.851-12.659,26.8-13.557,1.965-.16,1.468-5.139-.52-4.942a33.257,33.257,0,0,0-3.669.577c25.68-14.74,57.893-21.724,88.986-.726a88.941,88.941,0,0,1,14.719,12.8c-11.264-5.177-22.963-7.7-33.5-9.535a143.134,143.134,0,0,0-58.114,1.488c-4.362,1.044-8.678,2.051-12.992,3.018-1.9.417-.552,5.191,1.342,4.782,12.041-2.673,24.064-6.3,36.961-6.606a174.133,174.133,0,0,1,28.081,1.676c14.848,2.021,31.647,5.577,46.8,15.336a170.826,170.826,0,0,1,16.415,26.947,146.577,146.577,0,0,1,11.654,31.5,85.184,85.184,0,0,1-12.3,35.766c-16.994,26.409-44.406,35.846-67.952,41.49C530.388,1235.682,512.012,1239.26,494.006,1237.176Zm136.336-60.613c-.633,30.958-22.616,46.092-39.668,53.958-19.292,8.924-40.311,11.8-60.558,11.759a139.413,139.413,0,0,1-17.691-1.238c20.845-1.606,42.033-5.054,62.472-13.578,20.956-8.7,43.6-24.108,53.192-55.235.665-2.176,1.214-4.406,1.72-6.615A86.369,86.369,0,0,1,630.342,1176.563Z" transform="translate(-428.522 -1054.416)" fill="#81b03f" opacity="0.2"/>
      <path id="Shape_2-2" data-name="Shape 2" d="M926.459,976.766a106.78,106.78,0,0,0-1.883-12.651c1.454-17.935-2.973-36.092-15.15-49.936a71.638,71.638,0,0,0-15.1-12.931,123.123,123.123,0,0,0-19.989-20.3c-28.68-22.449-59.042-18.384-84.347-7.557a100.056,100.056,0,0,0-33.777,23.3c-11.927,11-21.245,27.275-27.157,44.307-7.76,22.413-8.354,54.292,8.549,78.173.491.692.987,1.3,1.492,1.971.919,1.587,1.906,3.161,2.958,4.687,12.516,18.055,30,24.14,45.6,25.442.851.246,1.7.491,2.55.709,17.48,4.705,34.915,5.276,52.235,3.555C870.287,1052.775,932.029,1041.085,926.459,976.766ZM907.8,918.482c8.481,9.185,12.425,20.692,13.3,32.508a156.738,156.738,0,0,0-17.372-36.609C905.108,915.693,906.487,917.037,907.8,918.482Zm-181.137,50.07a94.05,94.05,0,0,1,5.621-26.786c-4.479,17.553-6.214,40.127-.893,60.358A83.694,83.694,0,0,1,726.662,968.552Zm60.344,78.625a122.577,122.577,0,0,1-19.674-7.584,75.617,75.617,0,0,1-27.193-21.839c-7.879-14.054-9.519-31.8-8.939-46.942,1.176-30.015,11.616-52.931,26.7-69.259,7.8-7.39,16.851-12.658,26.8-13.557,1.965-.158,1.468-5.138-.52-4.939a33.026,33.026,0,0,0-3.669.574c25.68-14.738,57.893-21.722,88.987-.724a88.8,88.8,0,0,1,14.719,12.8c-11.264-5.177-22.963-7.7-33.5-9.535a143.116,143.116,0,0,0-58.114,1.488c-4.362,1.044-8.678,2.053-12.992,3.017-1.9.42-.552,5.195,1.342,4.784,12.041-2.672,24.064-6.3,36.961-6.607a174.187,174.187,0,0,1,28.081,1.676c14.848,2.022,31.648,5.577,46.8,15.336a170.808,170.808,0,0,1,16.415,26.948,146.591,146.591,0,0,1,11.654,31.5,85.182,85.182,0,0,1-12.3,35.766c-16.994,26.41-44.406,35.847-67.953,41.491C823.388,1045.682,805.012,1049.262,787.006,1047.177Zm136.336-60.612c-.633,30.956-22.616,46.092-39.668,53.959-19.292,8.923-40.311,11.8-60.558,11.758a139.956,139.956,0,0,1-17.691-1.236c20.845-1.607,42.033-5.057,62.472-13.58,20.956-8.7,43.6-24.11,53.192-55.235.665-2.175,1.214-4.407,1.72-6.617A86.4,86.4,0,0,1,923.342,986.564Z" transform="translate(-723.839 -864.653)" fill="#81b03f" opacity="0.2"/>
    </g>
    <g id="_007-checklist" data-name="007-checklist" transform="translate(662.061 565.375)">
      <path id="Path_2951" data-name="Path 2951" d="M4.232,84.642H57.838a4.232,4.232,0,0,0,4.232-4.232v-66.3h5.643a2.821,2.821,0,0,0,2.821-2.821V7.054A7.062,7.062,0,0,0,63.481,0H4.232A4.232,4.232,0,0,0,0,4.232V80.409A4.232,4.232,0,0,0,4.232,84.642ZM63.481,2.821a4.232,4.232,0,0,1,4.232,4.232v4.232H11.285V7.054A6.979,6.979,0,0,0,9.838,2.821ZM2.821,4.232A1.411,1.411,0,0,1,4.232,2.821,4.232,4.232,0,0,1,8.464,7.054v4.232a2.821,2.821,0,0,0,2.821,2.821H59.249v66.3a1.411,1.411,0,0,1-1.41,1.411H4.232a1.411,1.411,0,0,1-1.411-1.411Zm0,0" fill="#81b03f"/>
      <path id="Path_2952" data-name="Path 2952" d="M54.021,142.107h8.464a2.822,2.822,0,0,0,2.822-2.821v-1.41a1.411,1.411,0,1,0-2.822,0v1.41H54.021v-8.464h4.232a1.411,1.411,0,0,0,0-2.821H54.021a2.821,2.821,0,0,0-2.821,2.821v8.464A2.821,2.821,0,0,0,54.021,142.107Zm0,0" transform="translate(-42.735 -106.84)" fill="#81b03f"/>
      <path id="Path_2953" data-name="Path 2953" d="M54.021,261.572h8.464a2.822,2.822,0,0,0,2.822-2.821v-8.464a2.822,2.822,0,0,0-2.822-2.822H54.021a2.822,2.822,0,0,0-2.821,2.822v8.464A2.821,2.821,0,0,0,54.021,261.572Zm0-11.285h8.464v8.464H54.021Zm0,0" transform="translate(-42.735 -206.555)" fill="#81b03f"/>
      <path id="Path_2954" data-name="Path 2954" d="M54.021,381.04h8.464a2.822,2.822,0,0,0,2.822-2.821v-8.464a2.822,2.822,0,0,0-2.822-2.821H54.021a2.821,2.821,0,0,0-2.821,2.821v8.464A2.821,2.821,0,0,0,54.021,381.04Zm0-11.285h8.464v8.464H54.021Zm0,0" transform="translate(-42.735 -306.274)" fill="#81b03f"/>
      <path id="Path_2955" data-name="Path 2955" d="M163.544,147.888H170.6a1.411,1.411,0,1,0,0-2.821h-7.053a1.411,1.411,0,1,0,0,2.821Zm0,0" transform="translate(-135.33 -121.085)" fill="#81b03f"/>
      <path id="Path_2956" data-name="Path 2956" d="M240.344,147.888h14.107a1.411,1.411,0,0,0,0-2.821H240.344a1.411,1.411,0,0,0,0,2.821Zm0,0" transform="translate(-199.434 -121.085)" fill="#81b03f"/>
      <path id="Path_2957" data-name="Path 2957" d="M163.544,182.021h14.107a1.411,1.411,0,1,0,0-2.821H163.544a1.411,1.411,0,1,0,0,2.821Zm0,0" transform="translate(-135.33 -149.575)" fill="#81b03f"/>
      <path id="Path_2958" data-name="Path 2958" d="M290.066,179.2h-7.054a1.411,1.411,0,0,0,0,2.821h7.054a1.411,1.411,0,0,0,0-2.821Zm0,0" transform="translate(-235.048 -149.575)" fill="#81b03f"/>
      <path id="Path_2959" data-name="Path 2959" d="M163.544,267.357H170.6a1.411,1.411,0,1,0,0-2.821h-7.053a1.411,1.411,0,1,0,0,2.821Zm0,0" transform="translate(-135.33 -220.803)" fill="#81b03f"/>
      <path id="Path_2960" data-name="Path 2960" d="M254.451,264.535H240.344a1.411,1.411,0,0,0,0,2.821h14.107a1.411,1.411,0,0,0,0-2.821Zm0,0" transform="translate(-199.434 -220.803)" fill="#81b03f"/>
      <path id="Path_2961" data-name="Path 2961" d="M163.544,301.489h14.107a1.411,1.411,0,1,0,0-2.821H163.544a1.411,1.411,0,1,0,0,2.821Zm0,0" transform="translate(-135.33 -249.294)" fill="#81b03f"/>
      <path id="Path_2962" data-name="Path 2962" d="M290.066,298.668h-7.054a1.411,1.411,0,0,0,0,2.821h7.054a1.411,1.411,0,0,0,0-2.821Zm0,0" transform="translate(-235.048 -249.294)" fill="#81b03f"/>
      <path id="Path_2963" data-name="Path 2963" d="M163.544,386.821H170.6a1.411,1.411,0,1,0,0-2.821h-7.053a1.411,1.411,0,1,0,0,2.821Zm0,0" transform="translate(-135.33 -320.519)" fill="#81b03f"/>
      <path id="Path_2964" data-name="Path 2964" d="M254.451,384H240.344a1.411,1.411,0,0,0,0,2.821h14.107a1.411,1.411,0,0,0,0-2.821Zm0,0" transform="translate(-199.434 -320.519)" fill="#81b03f"/>
      <path id="Path_2965" data-name="Path 2965" d="M163.544,420.954h14.107a1.411,1.411,0,1,0,0-2.821H163.544a1.411,1.411,0,1,0,0,2.821Zm0,0" transform="translate(-135.33 -349.009)" fill="#81b03f"/>
      <path id="Path_2966" data-name="Path 2966" d="M290.066,418.133h-7.054a1.411,1.411,0,0,0,0,2.821h7.054a1.411,1.411,0,0,0,0-2.821Zm0,0" transform="translate(-235.048 -349.009)" fill="#81b03f"/>
      <path id="Path_2967" data-name="Path 2967" d="M79.3,118.42a1.411,1.411,0,0,0-1.995,1.995l2.821,2.821a1.412,1.412,0,0,0,1,.413h.118a1.412,1.412,0,0,0,1.031-.587l7.053-9.875a1.411,1.411,0,1,0-2.3-1.639l-6.084,8.519Zm0,0" transform="translate(-64.191 -92.614)" fill="#81b03f"/>
    </g>
  </g>
</svg>
