<svg xmlns="http://www.w3.org/2000/svg" width="102.537" height="113.592" viewBox="0 0 102.537 113.592">
  <g id="Group_8608" data-name="Group 8608" transform="translate(-11.747 93.073) rotate(-71)">
    <path id="Shape_1379" data-name="Shape 1379" d="M0,72.472S7.59-12.615,57.059,1.6c0,0,15.644,19.248-6.847,38.864C50.212,40.466,4.387,53.719,0,72.472Z" transform="translate(36.083 0)" fill="#c5d98b"/>
    <path id="Shape_1379_copy" data-name="Shape 1379 copy" d="M0,16.457s39.157-32.788,54.083-5.8c0,0-1.511,14.775-19.315,13.544C34.768,24.2,9.779,10.382,0,16.457Z" transform="translate(43.325 63.06)" fill="#c5d98b"/>
    <path id="Shape_1379_copy_2" data-name="Shape 1379 copy 2" d="M18.756,33.262S25.015-.551,4.146.007c0,0-8.2,5.906-1.539,15.785C2.608,15.791,19.076,25.537,18.756,33.262Z" transform="translate(0 29.762)" fill="#c5d98b"/>
  </g>
</svg>
