<svg xmlns="http://www.w3.org/2000/svg" width="118.014" height="37.625" viewBox="0 0 118.014 37.625">
  <g id="Leaf_Object" data-name="Leaf Object" transform="translate(-925 -1715.002)">
    <g id="Leaf_Object-2" data-name="Leaf Object" transform="translate(925 1715.002)">
      <path id="Shape_1" data-name="Shape 1" d="M3.95,35.783a.861.861,0,0,1-.325-1.264l1.535-2.592a1.852,1.852,0,0,0-.409-2.389c-3.991-3.22-6.787-9.007-2.855-15.647C6.017,6.926,23.516.367,24.335.073a.855.855,0,0,1,1.207.679c.066.793,2.994,18.857-1.178,25.9-3.259,5.506-8.278,7.647-14.017,5.928a.988.988,0,0,1-.58-1.191,1.055,1.055,0,0,1,1.218-.61c3.408.947,8.272.879,11.82-5.115,3.259-5.506,1.612-19.392.99-23.415C19.914,3.738,6.762,9.29,3.5,14.8c-4.17,7.047.87,11.937,2.448,13.258a3.708,3.708,0,0,1,.817,4.78L5.233,35.426a.923.923,0,0,1-.795.493A1,1,0,0,1,3.95,35.783Zm4.315-7.29a.91.91,0,0,1-.325-1.262l1.247-2.106L5.481,15.8a.925.925,0,0,1,.51-1.224.9.9,0,0,1,1.222.471l3.219,7.969,2.589-4.373-3.056-6.8a1.019,1.019,0,0,1,.511-1.225A.985.985,0,0,1,11.7,11.1l2.474,5.6,2.158-3.645-1.6-3.818a1.02,1.02,0,0,1,.511-1.224.988.988,0,0,1,1.222.471l1.067,2.546,1.918-3.24a.9.9,0,0,1,1.282-.357A.859.859,0,0,1,21.051,8.7l-1.916,3.239,2.84-.451a.973.973,0,0,1,1.031.8,1.034,1.034,0,0,1-.833,1.044l-4.188.556-2.206,3.725,6.165-.631a.873.873,0,0,1,1.03.8.927.927,0,0,1-.833,1.044l-7.56.817-2.589,4.373,8.683-1.265a.972.972,0,0,1,1.03.8,1.034,1.034,0,0,1-.831,1.044L10.746,26.112l-1.2,2.024a.922.922,0,0,1-.795.494A.993.993,0,0,1,8.264,28.493Z" transform="translate(57.22 0)" fill="#91ad41"/>
      <path id="Shape_1_copy" data-name="Shape 1 copy" d="M14.354,25.018l-1.03-1.83a2.711,2.711,0,0,1,.548-3.376,7.183,7.183,0,0,0,1.644-9.362C13.327,6.56,4.493,2.64,1.886,1.591c-.417,2.84-1.524,12.646.665,16.535,2.383,4.233,5.652,4.281,7.94,3.611a.672.672,0,0,1,.428,1.273c-3.854,1.215-7.226-.3-9.416-4.187C-1.3,13.847.668,1.091.713.531a.574.574,0,0,1,.81-.48C2.072.26,13.828,4.892,16.6,9.81A8.419,8.419,0,0,1,14.679,20.86a1.353,1.353,0,0,0-.274,1.687l1.03,1.83a.624.624,0,0,1-.219.893.645.645,0,0,1-.328.1A.617.617,0,0,1,14.354,25.018Zm-2.9-5.147-.805-1.43-6.8-1.082a.72.72,0,0,1-.559-.736.658.658,0,0,1,.691-.562l5.834.893L8.075,13.864,3,13.287a.647.647,0,0,1-.559-.736.6.6,0,0,1,.693-.563l4.141.446L5.789,9.8,2.974,9.411a.725.725,0,0,1-.559-.737.661.661,0,0,1,.693-.562l1.909.319L3.728,6.143a.621.621,0,0,1,.219-.891.592.592,0,0,1,.862.251L6.1,7.792l.716-1.8a.651.651,0,0,1,.822-.332.733.733,0,0,1,.342.864L6.9,9.222,8.351,11.8l1.661-3.958a.65.65,0,0,1,.82-.334.734.734,0,0,1,.343.865l-2.052,4.8,1.738,3.088,2.163-5.628a.593.593,0,0,1,.82-.332.664.664,0,0,1,.343.864L11.7,17.743l.837,1.487a.663.663,0,0,1-.217.893.649.649,0,0,1-.329.1A.617.617,0,0,1,11.456,19.871Z" transform="translate(35.959 10.006)" fill="#91ad41"/>
      <path id="Rounded_Rectangle_978" data-name="Rounded Rectangle 978" d="M45.855,21h32.5a.855.855,0,1,1,0,1.71h-32.5a.855.855,0,1,1,0-1.71Z" transform="translate(31.966 14.915)" fill="#91ad41"/>
      <path id="Rounded_Rectangle_978_copy" data-name="Rounded Rectangle 978 copy" d="M66.855,21h3.421a.855.855,0,0,1,0,1.71H66.855a.855.855,0,1,1,0-1.71Z" transform="translate(46.883 14.915)" fill="#91ad41"/>
      <path id="Rounded_Rectangle_978_copy_2" data-name="Rounded Rectangle 978 copy 2" d="M4.855,21h32.5a.855.855,0,0,1,0,1.71H4.855a.855.855,0,1,1,0-1.71Z" transform="translate(2.841 14.915)" fill="#91ad41"/>
      <path id="Rounded_Rectangle_978_copy_2-2" data-name="Rounded Rectangle 978 copy 2" d="M.855,21H4.276a.855.855,0,1,1,0,1.71H.855a.855.855,0,0,1,0-1.71Z" transform="translate(0 14.915)" fill="#91ad41"/>
    </g>
  </g>
</svg>
